<svg xmlns="http://www.w3.org/2000/svg" viewBox="0 0 220 220" role="img" aria-label="Fire growth pet stage 3">
  <defs>
    <radialGradient id="bg" cx="50%" cy="42%" r="68%">
      <stop offset="0" stop-color="#fff7c7"/>
      <stop offset="1" stop-color="#ffc9be"/>
    </radialGradient>
    <linearGradient id="body" x1="43" y1="20" x2="177" y2="200">
      <stop offset="0" stop-color="#ffe45d"/>
      <stop offset=".42" stop-color="#ff7628"/>
      <stop offset="1" stop-color="#b9212d"/>
    </linearGradient>
  </defs>
  <circle cx="110" cy="110" r="98" fill="url(#bg)"/>
  <path d="M109 17c14 32-21 47 4 75 18-16 23-36 21-59 44 38 67 66 67 109 0 38-34 65-91 65s-91-27-91-65c0-39 27-62 53-86 16-15 30-23 37-39Z" fill="url(#body)"/>
  <path d="M110 81c19 26-4 40 20 60 12 10 19 22 19 36 0 22-17 34-39 34s-39-12-39-34c0-18 11-31 26-45 11-10 13-26 13-51Z" fill="#fff0a0" opacity=".9"/>
  <path d="M44 101c-22 8-36 29-36 54 21-10 40-12 59-5" fill="#ff9230"/>
  <path d="M176 101c22 8 36 29 36 54-21-10-40-12-59-5" fill="#ff9230"/>
  <path d="M58 45l7 16 17 2-13 11 4 17-15-9-15 9 4-17-13-11 17-2 7-16Z" fill="#ffd550"/>
  <path d="M162 45l7 16 17 2-13 11 4 17-15-9-15 9 4-17-13-11 17-2 7-16Z" fill="#ffd550"/>
  <circle cx="90" cy="138" r="7" fill="#371109"/>
  <circle cx="130" cy="138" r="7" fill="#371109"/>
  <path d="M98 163c9 9 21 9 30 0" fill="none" stroke="#371109" stroke-width="6" stroke-linecap="round"/>
</svg>
